<svg xmlns="http://www.w3.org/2000/svg" xmlns:xlink="http://www.w3.org/1999/xlink" version="1.1" id="Layer_1" x="0px" y="0px" viewBox="0 14.5 50 21.1" style="enable-background:new 0 14.5 50 21.1;" xml:space="preserve" width="96"  height="41" >
<style type="text/css">
	.st0{fill:#db2777;}
</style>
<g id="XMLID_11_">
	<g id="XMLID_33_">
		<g id="XMLID_34_">
			<g id="XMLID_35_">
				<path id="XMLID_36_" class="st0" d="M23.8,27c-2.4,0.8-3.6-0.5-2.5-1.9c0.5-0.6,2.1-1.8,2.8-0.5l0,0c0,0,0.1,0.1,0.1,0.3      c0,0.1,0.1,0.1,0.1,0.2l0,0c0,0,0,0,0,0.1C24.5,25.6,24.5,26.3,23.8,27 M27.4,19.5c-0.2-1.6-0.7-1.4-1.4-0.3      c-0.6,0.9-0.8,1.5-0.7,2c0.1,0.8,0.2,1.3,0.2,1.3c-1.9-2.9-6-0.5-7.4,3.8c-1.2,3.9,3,3.7,3,3.7s-2.5,2.5-7.9,2.4      c-3.2,0-4.4-1.3-4.8-1.9c-0.6-1.1-1-0.4-0.9,0.5c0,0.3,0.1,0.6,0,1.1c-0.1,1.2,0.7,2.1,1.6,2.6c2.7,1.3,7.2,1.3,11.7-1.2      c3.2-1.8,5.7-4.7,6.4-9C27.5,23.4,27.7,21.4,27.4,19.5"/>
			</g>
		</g>
	</g>
	<g id="XMLID_27_">
		<g id="XMLID_28_">
			<g id="XMLID_29_">
				<path id="XMLID_30_" class="st0" d="M43.8,27.2c-7.4,3.9-11.2,0.7-11.2,0.7c2.8-4.8,10-8.5,14.1-7.5      C48.6,20.9,50.2,23.8,43.8,27.2 M50,20.9c-0.2-2.7-2.4-3.8-4.3-3.9c-9.4-0.1-14.6,9-14.6,9c-2-2.2-1.2-6.8-0.8-8      c0.4-1.1-0.4-1.6-0.9-0.3c-2.6,6.8,0.1,11.7,0.1,11.7s-1,2.2-1.1,4.5c0,1.1,0.6,1.6,1.5,1.6c1.3,0,1.6-1.5,1.1-2.3      c-0.4-0.7,0.2-2.1,0.2-2.1s4.2,3.4,12-0.4C48.2,28.2,50.2,23.6,50,20.9"/>
			</g>
		</g>
	</g>
	<g id="XMLID_21_">
		<g id="XMLID_22_">
			<g id="XMLID_23_">
				<path id="XMLID_24_" class="st0" d="M21.6,17.8c0.5,0.3,0.9,0.5,1.1,0.5c0.5,0.1,0.9-0.1,1.2-0.4c0.6-0.6,0.5-1.8-0.5-1.9      c-0.3,0-0.6,0-0.8,0.3c0.8-0.4,1.5,0.4,1.1,1.1c-0.2,0.3-0.5,0.5-0.9,0.4c-0.7-0.1-1.1-0.8-0.9-1.4c0.2-0.7,1-1,1.6-0.9      c1.3,0.2,1.3,1.6,1.2,1.9c-0.1,0.5-0.4,0.9-0.8,1.1C22.3,19.2,21.6,17.8,21.6,17.8 M22.5,19.4c1.4,0.2,2.8-0.8,2.9-2.1      c0.2-1.2-0.6-1.8-0.9-2c-0.2-0.1-0.5-0.2-0.8-0.3c-1-0.1-2,0.5-2.2,1.4c0,0.3,0,0.5,0.1,0.8c-0.7-1.2,0.4-2.5,1.3-2.7      c-1.2,0.1-2.3,0.9-2.5,2.1v0.1l0,0c0,0,0,0,0,0.1l0,0c0,0.2,0,0.5,0.1,0.8l0,0C20.7,18.6,21.5,19.3,22.5,19.4"/>
			</g>
		</g>
	</g>
	<g id="XMLID_18_">
		<g id="XMLID_19_">
			<path id="XMLID_3_" class="st0" d="M36.7,16.8c0,1.2-1.1,2.2-2.3,2.1c-1.3,0-2.3-1-2.2-2.2c0-1.2,1-2.2,2.3-2.1     C35.8,14.6,36.8,15.6,36.7,16.8"/>
		</g>
	</g>
	<g id="XMLID_12_">
		<g id="XMLID_13_">
			<g id="XMLID_14_">
				<path id="XMLID_15_" class="st0" d="M15.5,17.5c1.6-0.6,2.4-0.3,1.8,0.5c-0.5,0.6-3,1.1-4.1,0.7C14,18.1,14.9,17.7,15.5,17.5       M11.2,20c0.4,1.2,2.6,1.2,4.3,1.3c2,0,3.7-0.8,3.7-2.4s-1-4.4-3.2-4.4c-2.1,0-5.5,2-7.8,4.5c-1,1-1.7,2.1-2.1,3.1      c-0.2,0.4-0.4,1-0.4,1.7c0,1,0.7,1.9,3.2,1.5c6.1-1,6.2-0.4,6.2-0.4S9.2,29,4.2,27.6C0,26.5,1.6,20.7,4.9,17.4      C6,16.1,5.3,15.6,4,16.7c-1.4,1.3-3.5,3.5-3.9,7.2c-0.6,5.4,2.8,6.6,5,6.9c3.8,0.5,7.4-1.5,8.7-2.2c0.8-0.4,3.8-1.9,3.6-5.1      c-0.1-1.8-2.5-1.9-6.2-1.2c-2.6,0.4-2.9,0.2-2.9,0.2C8.7,21.7,9.8,20.8,11.2,20"/>
			</g>
		</g>
	</g>
</g>
</svg>